<?xml version="1.0" encoding="utf-8"?>
<!-- Generator: Adobe Illustrator 28.3.0, SVG Export Plug-In . SVG Version: 6.00 Build 0)  -->
<svg version="1.1" id="Capa_1" xmlns="http://www.w3.org/2000/svg" xmlns:xlink="http://www.w3.org/1999/xlink" x="0px" y="0px"
	 viewBox="0 0 458.12 100" style="enable-background:new 0 0 458.12 100;" xml:space="preserve">
<path d="M96.42,26.68L96.42,26.68l2.75-0.01V2.94l-2.97,0l0,0L27.98,93.2V2.94H4.25v94.92h23.69l0.03,0.02l15.47-20.47
	c4.71-6.13,10.16-12.09,16.12-11.38c3.14,0.37,5.75,3.26,7.73,8.59c4.74,12.72,12.5,18.36,18.18,20.85c4.9,2.15,9.08,2.4,10.72,2.4
	c0.26,0,0.45-0.01,0.58-0.01h2.4V74.13h-2.96c-6.7-0.37-12.57-3.45-18.26-6.45c-8.19-4.31-15.81-8.36-24.54-3.45l9.83-13.01
	C81.8,26.68,92.05,26.68,96.42,26.68z"/>
<path d="M170.36,3.36c-26.06,0-47.19,21.13-47.19,47.19c0,26.06,21.13,47.19,47.19,47.19s47.19-21.13,47.19-47.19
	C217.55,24.48,196.42,3.36,170.36,3.36z M146.54,87.96V13.14c6.89-4.4,15.06-6.96,23.82-6.96c8.5,0,16.45,2.41,23.21,6.57v75.61
	c-6.76,4.16-14.7,6.57-23.21,6.57C161.6,94.92,153.43,92.36,146.54,87.96z"/>
<path d="M336.26,3.22h-23.73v85.05c-6.85,4.29-14.93,6.79-23.58,6.79c-8.61,0-16.65-2.47-23.46-6.73V3.22h-23.73v47.46
	c0,26.06,21.13,47.19,47.19,47.19c26.06,0,47.3-21.13,47.31-47.19l0-0.01V3.22z"/>
<path d="M407.82,2.95h-47.69v2.97h2.28c5.76,0.38,10.29,2.27,13.47,5.65c5.7,6.04,5.25,14.94,5.24,15.03l-0.01,0.12l0.01,0.12
	c0.01,0.11,1.1,11.38-10.18,22.57c-11.87,11.78-10.99,23.53-10.85,24.81c0,0.68,0.03,1.34,0.06,1.99l0.03,20.5v1.16h47.63
	c26.21,0,47.46-21.25,47.46-47.46C455.28,24.2,434.03,2.95,407.82,2.95z M407.82,94.91h-25.59c-2.92-0.12-9.08-0.9-13.61-5.16
	c-3.79-3.56-5.72-8.81-5.72-15.6l-0.01-0.18c-0.01-0.11-1.24-11.37,10.03-22.56c10.47-10.39,11.12-20.74,11.05-23.92l0.03-21.58
	h23.81V94.91z"/>
</svg>
